<?xml version="1.0" encoding="UTF-8"?>
<!DOCTYPE svg PUBLIC "-//W3C//DTD SVG 1.1//EN" "http://www.w3.org/Graphics/SVG/1.1/DTD/svg11.dtd">
<svg xmlns="http://www.w3.org/2000/svg" version="1.1" width="1080px" height="1080px" style="shape-rendering:geometricPrecision; text-rendering:geometricPrecision; image-rendering:optimizeQuality; fill-rule:evenodd; clip-rule:evenodd" xmlns:xlink="http://www.w3.org/1999/xlink">
<g><path style="opacity:0.999" fill="#10151b" d="M 205.5,-0.5 C 299.833,-0.5 394.167,-0.5 488.5,-0.5C 326.111,150.189 163.111,300.189 -0.5,449.5C -0.5,368.167 -0.5,286.833 -0.5,205.5C 11.1055,116.399 57.7722,53.2324 139.5,16C 160.925,7.64361 182.925,2.14361 205.5,-0.5 Z"/></g>
<g><path style="opacity:1" fill="#13181e" d="M 488.5,-0.5 C 504.5,-0.5 520.5,-0.5 536.5,-0.5C 357.826,164.84 178.826,329.84 -0.5,494.5C -0.5,479.5 -0.5,464.5 -0.5,449.5C 163.111,300.189 326.111,150.189 488.5,-0.5 Z"/></g>
<g><path style="opacity:1" fill="#161b21" d="M 536.5,-0.5 C 588.167,-0.5 639.833,-0.5 691.5,-0.5C 687.455,3.38013 683.955,7.71347 681,12.5C 680.667,11.8333 680.333,11.1667 680,10.5C 675.251,14.5779 671.251,19.2446 668,24.5C 667.667,23.8333 667.333,23.1667 667,22.5C 662.251,26.5779 658.251,31.2446 655,36.5C 654.667,35.8333 654.333,35.1667 654,34.5C 649.582,38.2467 645.916,42.5801 643,47.5C 642.667,46.8333 642.333,46.1667 642,45.5C 637.251,49.5779 633.251,54.2446 630,59.5C 629.667,58.8333 629.333,58.1667 629,57.5C 624.251,61.5779 620.251,66.2446 617,71.5C 616.667,70.8333 616.333,70.1667 616,69.5C 611.251,73.5779 607.251,78.2446 604,83.5C 603.667,82.8333 603.333,82.1667 603,81.5C 598.251,85.5779 594.251,90.2446 591,95.5C 590.667,94.8333 590.333,94.1667 590,93.5C 585.582,97.2467 581.916,101.58 579,106.5C 578.667,105.833 578.333,105.167 578,104.5C 573.224,108.601 569.224,113.268 566,118.5C 565.667,117.833 565.333,117.167 565,116.5C 560.251,120.578 556.251,125.245 553,130.5C 552.667,129.833 552.333,129.167 552,128.5C 547.251,132.578 543.251,137.245 540,142.5C 539.667,141.833 539.333,141.167 539,140.5C 534.582,144.247 530.916,148.58 528,153.5C 527.667,152.833 527.333,152.167 527,151.5C 522.251,155.578 518.251,160.245 515,165.5C 514.667,164.833 514.333,164.167 514,163.5C 509.251,167.578 505.251,172.245 502,177.5C 501.667,176.833 501.333,176.167 501,175.5C 496.251,179.578 492.251,184.245 489,189.5C 488.667,188.833 488.333,188.167 488,187.5C 483.251,191.578 479.251,196.245 476,201.5C 475.667,200.833 475.333,200.167 475,199.5C 470.582,203.247 466.916,207.58 464,212.5C 463.667,211.833 463.333,211.167 463,210.5C 458.224,214.601 454.224,219.268 451,224.5C 450.667,223.833 450.333,223.167 450,222.5C 445.251,226.578 441.251,231.245 438,236.5C 437.667,235.833 437.333,235.167 437,234.5C 432.251,238.578 428.251,243.245 425,248.5C 424.667,247.833 424.333,247.167 424,246.5C 419.582,250.247 415.916,254.58 413,259.5C 412.667,258.833 412.333,258.167 412,257.5C 407.251,261.578 403.251,266.245 400,271.5C 399.667,270.833 399.333,270.167 399,269.5C 394.251,273.578 390.251,278.245 387,283.5C 386.667,282.833 386.333,282.167 386,281.5C 381.528,285.129 378.028,289.463 375.5,294.5C 373.901,294.232 372.568,294.566 371.5,295.5C 367.311,298.866 363.811,302.866 361,307.5C 360.667,306.833 360.333,306.167 360,305.5C 355.582,309.247 351.916,313.58 349,318.5C 348.667,317.833 348.333,317.167 348,316.5C 343.251,320.578 339.251,325.245 336,330.5C 335.667,329.833 335.333,329.167 335,328.5C 330.251,332.578 326.251,337.245 323,342.5C 322.667,341.833 322.333,341.167 322,340.5C 317.251,344.578 313.251,349.245 310,354.5C 309.667,353.833 309.333,353.167 309,352.5C 304.582,356.247 300.916,360.58 298,365.5C 297.667,364.833 297.333,364.167 297,363.5C 292.251,367.578 288.251,372.245 285,377.5C 284.667,376.833 284.333,376.167 284,375.5C 279.251,379.578 275.251,384.245 272,389.5C 271.667,388.833 271.333,388.167 271,387.5C 266.251,391.578 262.251,396.245 259,401.5C 258.667,400.833 258.333,400.167 258,399.5C 253.582,403.247 249.916,407.58 247,412.5C 246.667,411.833 246.333,411.167 246,410.5C 241.251,414.578 237.251,419.245 234,424.5C 233.667,423.833 233.333,423.167 233,422.5C 228.251,426.578 224.251,431.245 221,436.5C 220.667,435.833 220.333,435.167 220,434.5C 215.251,438.578 211.251,443.245 208,448.5C 207.667,447.833 207.333,447.167 207,446.5C 202.251,450.578 198.251,455.245 195,460.5C 194.667,459.833 194.333,459.167 194,458.5C 189.582,462.247 185.916,466.58 183,471.5C 182.667,470.833 182.333,470.167 182,469.5C 177.224,473.601 173.224,478.268 170,483.5C 169.667,482.833 169.333,482.167 169,481.5C 164.251,485.578 160.251,490.245 157,495.5C 156.667,494.833 156.333,494.167 156,493.5C 151.251,497.578 147.251,502.245 144,507.5C 143.667,506.833 143.333,506.167 143,505.5C 138.582,509.247 134.916,513.58 132,518.5C 131.667,517.833 131.333,517.167 131,516.5C 126.251,520.578 122.251,525.245 119,530.5C 118.667,529.833 118.333,529.167 118,528.5C 113.251,532.578 109.251,537.245 106,542.5C 105.667,541.833 105.333,541.167 105,540.5C 100.251,544.578 96.2511,549.245 93,554.5C 92.6667,553.833 92.3333,553.167 92,552.5C 87.2511,556.578 83.2511,561.245 80,566.5C 79.6667,565.833 79.3333,565.167 79,564.5C 74.5823,568.247 70.9156,572.58 68,577.5C 67.6667,576.833 67.3333,576.167 67,575.5C 62.2243,579.601 58.2243,584.268 55,589.5C 54.6667,588.833 54.3333,588.167 54,587.5C 49.2511,591.578 45.2511,596.245 42,601.5C 41.6667,600.833 41.3333,600.167 41,599.5C 36.2511,603.578 32.2511,608.245 29,613.5C 28.6667,612.833 28.3333,612.167 28,611.5C 23.5823,615.247 19.9156,619.58 17,624.5C 16.6667,623.833 16.3333,623.167 16,622.5C 11.2511,626.578 7.25109,631.245 4,636.5C 3.66667,635.833 3.33333,635.167 3,634.5C 1.9609,635.71 0.794229,636.71 -0.5,637.5C -0.5,589.833 -0.5,542.167 -0.5,494.5C 178.826,329.84 357.826,164.84 536.5,-0.5 Z"/></g>
<g><path style="opacity:1" fill="#181e25" d="M 691.5,-0.5 C 701.167,-0.5 710.833,-0.5 720.5,-0.5C 713.674,4.78963 707.174,11.123 701,18.5C 700.667,18.1667 700.333,17.8333 700,17.5C 696.702,21.7998 693.035,25.7998 689,29.5C 688.667,29.1667 688.333,28.8333 688,28.5C 684.368,33.1337 680.368,37.467 676,41.5C 675.667,41.1667 675.333,40.8333 675,40.5C 671.368,45.1337 667.368,49.467 663,53.5C 662.667,53.1667 662.333,52.8333 662,52.5C 658.368,57.1337 654.368,61.467 650,65.5C 649.667,65.1667 649.333,64.8333 649,64.5C 645.702,68.7998 642.035,72.7998 638,76.5C 637.667,76.1667 637.333,75.8333 637,75.5C 633.368,80.1337 629.368,84.467 625,88.5C 624.667,88.1667 624.333,87.8333 624,87.5C 620.368,92.1337 616.368,96.467 612,100.5C 611.667,100.167 611.333,99.8333 611,99.5C 607.368,104.134 603.368,108.467 599,112.5C 598.667,112.167 598.333,111.833 598,111.5C 594.368,116.134 590.368,120.467 586,124.5C 585.667,124.167 585.333,123.833 585,123.5C 581.702,127.8 578.035,131.8 574,135.5C 573.667,135.167 573.333,134.833 573,134.5C 569.368,139.134 565.368,143.467 561,147.5C 560.667,147.167 560.333,146.833 560,146.5C 556.368,151.134 552.368,155.467 548,159.5C 547.667,159.167 547.333,158.833 547,158.5C 543.368,163.134 539.368,167.467 535,171.5C 534.667,171.167 534.333,170.833 534,170.5C 530.702,174.8 527.035,178.8 523,182.5C 522.667,182.167 522.333,181.833 522,181.5C 518.368,186.134 514.368,190.467 510,194.5C 509.667,194.167 509.333,193.833 509,193.5C 505.368,198.134 501.368,202.467 497,206.5C 496.667,206.167 496.333,205.833 496,205.5C 492.368,210.134 488.368,214.467 484,218.5C 483.667,218.167 483.333,217.833 483,217.5C 479.368,222.134 475.368,226.467 471,230.5C 470.667,230.167 470.333,229.833 470,229.5C 466.702,233.8 463.035,237.8 459,241.5C 458.667,241.167 458.333,240.833 458,240.5C 454.368,245.134 450.368,249.467 446,253.5C 445.667,253.167 445.333,252.833 445,252.5C 441.368,257.134 437.368,261.467 433,265.5C 432.667,265.167 432.333,264.833 432,264.5C 428.368,269.134 424.368,273.467 420,277.5C 419.667,277.167 419.333,276.833 419,276.5C 415.702,280.8 412.035,284.8 408,288.5C 407.667,288.167 407.333,287.833 407,287.5C 404.675,289.501 402.842,291.834 401.5,294.5C 392.833,294.5 384.167,294.5 375.5,294.5C 378.028,289.463 381.528,285.129 386,281.5C 386.333,282.167 386.667,282.833 387,283.5C 390.251,278.245 394.251,273.578 399,269.5C 399.333,270.167 399.667,270.833 400,271.5C 403.251,266.245 407.251,261.578 412,257.5C 412.333,258.167 412.667,258.833 413,259.5C 415.916,254.58 419.582,250.247 424,246.5C 424.333,247.167 424.667,247.833 425,248.5C 428.251,243.245 432.251,238.578 437,234.5C 437.333,235.167 437.667,235.833 438,236.5C 441.251,231.245 445.251,226.578 450,222.5C 450.333,223.167 450.667,223.833 451,224.5C 454.224,219.268 458.224,214.601 463,210.5C 463.333,211.167 463.667,211.833 464,212.5C 466.916,207.58 470.582,203.247 475,199.5C 475.333,200.167 475.667,200.833 476,201.5C 479.251,196.245 483.251,191.578 488,187.5C 488.333,188.167 488.667,188.833 489,189.5C 492.251,184.245 496.251,179.578 501,175.5C 501.333,176.167 501.667,176.833 502,177.5C 505.251,172.245 509.251,167.578 514,163.5C 514.333,164.167 514.667,164.833 515,165.5C 518.251,160.245 522.251,155.578 527,151.5C 527.333,152.167 527.667,152.833 528,153.5C 530.916,148.58 534.582,144.247 539,140.5C 539.333,141.167 539.667,141.833 540,142.5C 543.251,137.245 547.251,132.578 552,128.5C 552.333,129.167 552.667,129.833 553,130.5C 556.251,125.245 560.251,120.578 565,116.5C 565.333,117.167 565.667,117.833 566,118.5C 569.224,113.268 573.224,108.601 578,104.5C 578.333,105.167 578.667,105.833 579,106.5C 581.916,101.58 585.582,97.2467 590,93.5C 590.333,94.1667 590.667,94.8333 591,95.5C 594.251,90.2446 598.251,85.5779 603,81.5C 603.333,82.1667 603.667,82.8333 604,83.5C 607.251,78.2446 611.251,73.5779 616,69.5C 616.333,70.1667 616.667,70.8333 617,71.5C 620.251,66.2446 624.251,61.5779 629,57.5C 629.333,58.1667 629.667,58.8333 630,59.5C 633.251,54.2446 637.251,49.5779 642,45.5C 642.333,46.1667 642.667,46.8333 643,47.5C 645.916,42.5801 649.582,38.2467 654,34.5C 654.333,35.1667 654.667,35.8333 655,36.5C 658.251,31.2446 662.251,26.5779 667,22.5C 667.333,23.1667 667.667,23.8333 668,24.5C 671.251,19.2446 675.251,14.5779 680,10.5C 680.333,11.1667 680.667,11.8333 681,12.5C 683.955,7.71347 687.455,3.38013 691.5,-0.5 Z"/></g>
<g><path style="opacity:1" fill="#1b2127" d="M 720.5,-0.5 C 750.167,-0.5 779.833,-0.5 809.5,-0.5C 703.663,98.1685 597.33,196.335 490.5,294C 465.502,294.5 440.502,294.667 415.5,294.5C 410.833,294.5 406.167,294.5 401.5,294.5C 402.842,291.834 404.675,289.501 407,287.5C 407.333,287.833 407.667,288.167 408,288.5C 412.035,284.8 415.702,280.8 419,276.5C 419.333,276.833 419.667,277.167 420,277.5C 424.368,273.467 428.368,269.134 432,264.5C 432.333,264.833 432.667,265.167 433,265.5C 437.368,261.467 441.368,257.134 445,252.5C 445.333,252.833 445.667,253.167 446,253.5C 450.368,249.467 454.368,245.134 458,240.5C 458.333,240.833 458.667,241.167 459,241.5C 463.035,237.8 466.702,233.8 470,229.5C 470.333,229.833 470.667,230.167 471,230.5C 475.368,226.467 479.368,222.134 483,217.5C 483.333,217.833 483.667,218.167 484,218.5C 488.368,214.467 492.368,210.134 496,205.5C 496.333,205.833 496.667,206.167 497,206.5C 501.368,202.467 505.368,198.134 509,193.5C 509.333,193.833 509.667,194.167 510,194.5C 514.368,190.467 518.368,186.134 522,181.5C 522.333,181.833 522.667,182.167 523,182.5C 527.035,178.8 530.702,174.8 534,170.5C 534.333,170.833 534.667,171.167 535,171.5C 539.368,167.467 543.368,163.134 547,158.5C 547.333,158.833 547.667,159.167 548,159.5C 552.368,155.467 556.368,151.134 560,146.5C 560.333,146.833 560.667,147.167 561,147.5C 565.368,143.467 569.368,139.134 573,134.5C 573.333,134.833 573.667,135.167 574,135.5C 578.035,131.8 581.702,127.8 585,123.5C 585.333,123.833 585.667,124.167 586,124.5C 590.368,120.467 594.368,116.134 598,111.5C 598.333,111.833 598.667,112.167 599,112.5C 603.368,108.467 607.368,104.134 611,99.5C 611.333,99.8333 611.667,100.167 612,100.5C 616.368,96.467 620.368,92.1337 624,87.5C 624.333,87.8333 624.667,88.1667 625,88.5C 629.368,84.467 633.368,80.1337 637,75.5C 637.333,75.8333 637.667,76.1667 638,76.5C 642.035,72.7998 645.702,68.7998 649,64.5C 649.333,64.8333 649.667,65.1667 650,65.5C 654.368,61.467 658.368,57.1337 662,52.5C 662.333,52.8333 662.667,53.1667 663,53.5C 667.368,49.467 671.368,45.1337 675,40.5C 675.333,40.8333 675.667,41.1667 676,41.5C 680.368,37.467 684.368,33.1337 688,28.5C 688.333,28.8333 688.667,29.1667 689,29.5C 693.035,25.7998 696.702,21.7998 700,17.5C 700.333,17.8333 700.667,18.1667 701,18.5C 707.174,11.123 713.674,4.78963 720.5,-0.5 Z"/></g>
<g><path style="opacity:1" fill="#1e242e" d="M 809.5,-0.5 C 828.833,-0.5 848.167,-0.5 867.5,-0.5C 861.735,3.43003 856.735,8.26336 852.5,14C 847.549,16.6176 843.549,20.2842 840.5,25C 835.214,27.9526 830.88,31.9526 827.5,37C 822.214,39.9526 817.88,43.9526 814.5,49C 809.214,51.9526 804.88,55.9526 801.5,61C 796.214,63.9526 791.88,67.9526 788.5,73C 783.549,75.6176 779.549,79.2842 776.5,84C 771.214,86.9526 766.88,90.9526 763.5,96C 758.214,98.9526 753.88,102.953 750.5,108C 745.214,110.953 740.88,114.953 737.5,120C 732.549,122.618 728.549,126.284 725.5,131C 720.214,133.953 715.88,137.953 712.5,143C 707.214,145.953 702.88,149.953 699.5,155C 694.214,157.953 689.88,161.953 686.5,167C 680.5,172 674.5,177 668.5,182C 661.833,188.667 655.167,195.333 648.5,202C 643.214,204.953 638.88,208.953 635.5,214C 630.214,216.953 625.88,220.953 622.5,226C 616.5,231 610.5,236 604.5,241C 597.833,247.667 591.167,254.333 584.5,261C 579.214,263.953 574.88,267.953 571.5,273C 565.5,278 559.5,283 553.5,288C 551.126,290.039 549.126,292.372 547.5,295C 545.527,295.495 543.527,295.662 541.5,295.5C 537.143,295.414 532.81,295.08 528.5,294.5C 528.5,300.167 528.5,305.833 528.5,311.5C 517.256,322.685 505.589,333.351 493.5,343.5C 493.5,327.5 493.5,311.5 493.5,295.5C 467.328,295.831 441.328,295.498 415.5,294.5C 440.502,294.667 465.502,294.5 490.5,294C 597.33,196.335 703.663,98.1685 809.5,-0.5 Z"/></g>
<g><path style="opacity:0.999" fill="#212635" d="M 867.5,-0.5 C 869.5,-0.5 871.5,-0.5 873.5,-0.5C 884.477,0.942443 895.477,2.94244 906.5,5.5C 799.997,104.835 692.997,203.668 585.5,302C 584.207,302.49 582.873,302.657 581.5,302.5C 568.099,299.831 554.766,297.498 541.5,295.5C 543.527,295.662 545.527,295.495 547.5,295C 549.126,292.372 551.126,290.039 553.5,288C 559.5,283 565.5,278 571.5,273C 574.88,267.953 579.214,263.953 584.5,261C 591.167,254.333 597.833,247.667 604.5,241C 610.5,236 616.5,231 622.5,226C 625.88,220.953 630.214,216.953 635.5,214C 638.88,208.953 643.214,204.953 648.5,202C 655.167,195.333 661.833,188.667 668.5,182C 674.5,177 680.5,172 686.5,167C 689.88,161.953 694.214,157.953 699.5,155C 702.88,149.953 707.214,145.953 712.5,143C 715.88,137.953 720.214,133.953 725.5,131C 728.549,126.284 732.549,122.618 737.5,120C 740.88,114.953 745.214,110.953 750.5,108C 753.88,102.953 758.214,98.9526 763.5,96C 766.88,90.9526 771.214,86.9526 776.5,84C 779.549,79.2842 783.549,75.6176 788.5,73C 791.88,67.9526 796.214,63.9526 801.5,61C 804.88,55.9526 809.214,51.9526 814.5,49C 817.88,43.9526 822.214,39.9526 827.5,37C 830.88,31.9526 835.214,27.9526 840.5,25C 843.549,20.2842 847.549,16.6176 852.5,14C 856.735,8.26336 861.735,3.43003 867.5,-0.5 Z"/></g>
<g><path style="opacity:0.999" fill="#24283b" d="M 906.5,5.5 C 916.176,7.7264 925.51,10.7264 934.5,14.5C 827.133,113.868 719.467,212.868 611.5,311.5C 601.401,308.48 591.401,305.48 581.5,302.5C 582.873,302.657 584.207,302.49 585.5,302C 692.997,203.668 799.997,104.835 906.5,5.5 Z"/></g>
<g><path style="opacity:0.999" fill="#272a41" d="M 934.5,14.5 C 942.332,16.8818 949.665,20.2151 956.5,24.5C 855.063,118.1 753.729,211.933 652.5,306C 646.564,311.781 640.23,316.948 633.5,321.5C 626.005,318.343 618.672,315.01 611.5,311.5C 719.467,212.868 827.133,113.868 934.5,14.5 Z"/></g>
<g><path style="opacity:0.998" fill="#2a2c47" d="M 956.5,24.5 C 963.332,27.4124 969.666,31.0791 975.5,35.5C 869.33,134.502 762.664,233.002 655.5,331C 654.177,331.816 653.511,332.983 653.5,334.5C 646.811,330.133 640.144,325.8 633.5,321.5C 640.23,316.948 646.564,311.781 652.5,306C 753.729,211.933 855.063,118.1 956.5,24.5 Z"/></g>
<g><path style="opacity:0.998" fill="#2e2d4d" d="M 975.5,35.5 C 982.525,39.677 989.192,44.3437 995.5,49.5C 889.37,147.128 783.37,244.961 677.5,343C 674.935,345.08 672.268,346.913 669.5,348.5C 664.437,343.432 659.104,338.765 653.5,334.5C 653.511,332.983 654.177,331.816 655.5,331C 762.664,233.002 869.33,134.502 975.5,35.5 Z"/></g>
<g><path style="opacity:0.998" fill="#302f53" d="M 995.5,49.5 C 997.858,51.5293 1000.19,53.5293 1002.5,55.5C 894.602,156.429 785.935,256.429 676.5,355.5C 673.833,353.5 671.5,351.167 669.5,348.5C 672.268,346.913 674.935,345.08 677.5,343C 783.37,244.961 889.37,147.128 995.5,49.5 Z"/></g>
<g><path style="opacity:0.999" fill="#322f56" d="M 1002.5,55.5 C 1005.17,57.5 1007.5,59.8333 1009.5,62.5C 903.67,160.162 797.67,257.662 691.5,355C 688.223,357.766 685.557,360.933 683.5,364.5C 680.815,361.81 678.482,358.81 676.5,355.5C 785.935,256.429 894.602,156.429 1002.5,55.5 Z"/></g>
<g><path style="opacity:0.999" fill="#34305a" d="M 1009.5,62.5 C 1014.17,66.5 1018.5,70.8333 1022.5,75.5C 916.337,173.496 810.004,271.329 703.5,369C 699.561,372.429 696.228,376.263 693.5,380.5C 690.181,375.203 686.847,369.869 683.5,364.5C 685.557,360.933 688.223,357.766 691.5,355C 797.67,257.662 903.67,160.162 1009.5,62.5 Z"/></g>
<g><path style="opacity:0.998" fill="#373260" d="M 1022.5,75.5 C 1026.92,79.5873 1030.59,84.2539 1033.5,89.5C 922.174,191.494 811.174,293.827 700.5,396.5C 698.185,391.244 695.852,385.91 693.5,380.5C 696.228,376.263 699.561,372.429 703.5,369C 810.004,271.329 916.337,173.496 1022.5,75.5 Z"/></g>
<g><path style="opacity:0.998" fill="#3b3367" d="M 1033.5,89.5 C 1038.27,94.6068 1042.27,100.273 1045.5,106.5C 932.2,209.798 819.2,313.465 706.5,417.5C 704.506,410.515 702.506,403.515 700.5,396.5C 811.174,293.827 922.174,191.494 1033.5,89.5 Z"/></g>
<g><path style="opacity:0.999" fill="#3d346c" d="M 1045.5,106.5 C 1047.59,108.336 1048.92,110.669 1049.5,113.5C 935.87,217.961 822.37,322.627 709,427.5C 708.51,428.793 708.343,430.127 708.5,431.5C 707.578,427.005 706.911,422.338 706.5,417.5C 819.2,313.465 932.2,209.798 1045.5,106.5 Z"/></g>
<g><path style="opacity:0.999" fill="#3f356e" d="M 1049.5,113.5 C 1051.59,115.336 1052.92,117.669 1053.5,120.5C 939.46,226.875 824.793,332.541 709.5,437.5C 708.85,435.565 708.517,433.565 708.5,431.5C 708.343,430.127 708.51,428.793 709,427.5C 822.37,322.627 935.87,217.961 1049.5,113.5 Z"/></g>
<g><path style="opacity:0.999" fill="#413573" d="M 1053.5,120.5 C 1056.95,125.735 1059.62,131.402 1061.5,137.5C 944.167,245.167 826.833,352.833 709.5,460.5C 709.5,452.833 709.5,445.167 709.5,437.5C 824.793,332.541 939.46,226.875 1053.5,120.5 Z"/></g>
<g><path style="opacity:0.999" fill="#433677" d="M 1061.5,137.5 C 1063.07,139.509 1064.07,141.843 1064.5,144.5C 947.037,252.127 829.703,359.961 712.5,468C 710.372,469.792 709.039,471.958 708.5,474.5C 708.669,469.819 709.002,465.152 709.5,460.5C 826.833,352.833 944.167,245.167 1061.5,137.5 Z"/></g>
<g><path style="opacity:0.999" fill="#45377a" d="M 1064.5,144.5 C 1066.07,147.215 1067.07,150.215 1067.5,153.5C 950.396,261.433 833.396,369.599 716.5,478C 713.603,480.41 710.603,482.577 707.5,484.5C 708.051,481.193 708.384,477.86 708.5,474.5C 709.039,471.958 710.372,469.792 712.5,468C 829.703,359.961 947.037,252.127 1064.5,144.5 Z"/></g>
<g><path style="opacity:0.999" fill="#483780" d="M 1067.5,153.5 C 1070.57,160.094 1072.57,167.094 1073.5,174.5C 949.473,289.195 825.139,403.529 700.5,517.5C 703.728,506.691 706.062,495.691 707.5,484.5C 710.603,482.577 713.603,480.41 716.5,478C 833.396,369.599 950.396,261.433 1067.5,153.5 Z"/></g>
<g><path style="opacity:0.999" fill="#4b3986" d="M 1073.5,174.5 C 1075.68,180.876 1077.01,187.543 1077.5,194.5C 943.703,317.127 810.037,439.961 676.5,563C 672.893,566.098 669.893,569.598 667.5,573.5C 663.864,568.858 660.197,564.191 656.5,559.5C 667.865,548.134 679.531,537.134 691.5,526.5C 692.898,528.109 694.565,528.942 696.5,529C 698.131,525.272 699.465,521.439 700.5,517.5C 825.139,403.529 949.473,289.195 1073.5,174.5 Z"/></g>
<g><path style="opacity:0.999" fill="#4e398c" d="M 1077.5,194.5 C 1078.03,198.312 1078.69,201.979 1079.5,205.5C 1079.5,208.833 1079.5,212.167 1079.5,215.5C 944.84,338.827 810.507,462.493 676.5,586.5C 673.266,582.378 670.266,578.045 667.5,573.5C 669.893,569.598 672.893,566.098 676.5,563C 810.037,439.961 943.703,317.127 1077.5,194.5 Z"/></g>
<g><path style="opacity:1" fill="#513a92" d="M 1079.5,215.5 C 1079.5,223.167 1079.5,230.833 1079.5,238.5C 947.807,359.862 816.141,481.195 684.5,602.5C 681.472,597.436 678.805,592.103 676.5,586.5C 810.507,462.493 944.84,338.827 1079.5,215.5 Z"/></g>
<g><path style="opacity:1" fill="#553b99" d="M 1079.5,238.5 C 1079.5,247.833 1079.5,257.167 1079.5,266.5C 950.69,385.066 821.69,503.4 692.5,621.5C 689.597,615.35 686.93,609.016 684.5,602.5C 816.141,481.195 947.807,359.862 1079.5,238.5 Z"/></g>
<g><path style="opacity:1" fill="#583c9f" d="M 1079.5,266.5 C 1079.5,274.5 1079.5,282.5 1079.5,290.5C 952.174,407.16 825.174,524.16 698.5,641.5C 696.135,635.061 694.135,628.394 692.5,621.5C 821.69,503.4 950.69,385.066 1079.5,266.5 Z"/></g>
<g><path style="opacity:1" fill="#5b3da5" d="M 1079.5,290.5 C 1079.5,298.833 1079.5,307.167 1079.5,315.5C 958.004,427.496 836.337,539.329 714.5,651C 710.23,654.761 706.563,658.928 703.5,663.5C 701.545,656.339 699.879,649.006 698.5,641.5C 825.174,524.16 952.174,407.16 1079.5,290.5 Z"/></g>
<g><path style="opacity:1" fill="#f2f7fb" d="M 375.5,294.5 C 384.167,294.5 392.833,294.5 401.5,294.5C 406.167,294.5 410.833,294.5 415.5,294.5C 441.328,295.498 467.328,295.831 493.5,295.5C 493.5,311.5 493.5,327.5 493.5,343.5C 493.5,357.833 493.5,372.167 493.5,386.5C 493.5,397.833 493.5,409.167 493.5,420.5C 493.5,430.833 493.5,441.167 493.5,451.5C 493.5,461.167 493.5,470.833 493.5,480.5C 493.5,490.833 493.5,501.167 493.5,511.5C 493.334,516.179 493.501,520.845 494,525.5C 499.71,523.724 505.544,522.391 511.5,521.5C 528.7,518.827 546.034,517.827 563.5,518.5C 565.167,518.5 566.833,518.5 568.5,518.5C 576.848,519.752 585.181,521.085 593.5,522.5C 605.413,526.28 617.08,530.947 628.5,536.5C 638.39,543.381 647.724,551.048 656.5,559.5C 660.197,564.191 663.864,568.858 667.5,573.5C 670.266,578.045 673.266,582.378 676.5,586.5C 678.805,592.103 681.472,597.436 684.5,602.5C 686.93,609.016 689.597,615.35 692.5,621.5C 694.135,628.394 696.135,635.061 698.5,641.5C 699.879,649.006 701.545,656.339 703.5,663.5C 704.506,670.971 705.506,678.305 706.5,685.5C 707.304,695.66 708.304,705.66 709.5,715.5C 709.5,725.5 709.5,735.5 709.5,745.5C 709.26,758.524 708.593,771.524 707.5,784.5C 706.873,789.141 706.54,793.807 706.5,798.5C 700.833,798.5 695.167,798.5 689.5,798.5C 677.167,798.5 664.833,798.5 652.5,798.5C 640.167,798.5 627.833,798.5 615.5,798.5C 607.833,798.5 600.167,798.5 592.5,798.5C 592.667,751.165 592.5,703.832 592,656.5C 589.969,653.645 587.803,650.978 585.5,648.5C 582.157,643.493 578.157,639.16 573.5,635.5C 569.249,630.043 563.915,626.043 557.5,623.5C 544.353,616.483 531.353,616.983 518.5,625C 505.143,634.865 494.977,647.365 488,662.5C 487.5,671.16 487.334,679.827 487.5,688.5C 487.5,697.167 487.5,705.833 487.5,714.5C 487.5,722.167 487.5,729.833 487.5,737.5C 487.5,745.167 487.5,752.833 487.5,760.5C 487.5,768.167 487.5,775.833 487.5,783.5C 487.5,788.5 487.5,793.5 487.5,798.5C 481.833,798.5 476.167,798.5 470.5,798.5C 462.167,798.5 453.833,798.5 445.5,798.5C 437.167,798.5 428.833,798.5 420.5,798.5C 412.5,798.5 404.5,798.5 396.5,798.5C 387.766,799.135 379.433,798.468 371.5,796.5C 371.5,788.833 371.5,781.167 371.5,773.5C 371.5,765.833 371.5,758.167 371.5,750.5C 371.5,746.5 371.5,742.5 371.5,738.5C 371.5,734.833 371.5,731.167 371.5,727.5C 371.5,718.167 371.5,708.833 371.5,699.5C 371.5,691.5 371.5,683.5 371.5,675.5C 371.5,667.167 371.5,658.833 371.5,650.5C 371.5,646.5 371.5,642.5 371.5,638.5C 371.5,634.167 371.5,629.833 371.5,625.5C 371.5,614.833 371.5,604.167 371.5,593.5C 371.5,584.167 371.5,574.833 371.5,565.5C 371.5,554.833 371.5,544.167 371.5,533.5C 371.5,522.167 371.5,510.833 371.5,499.5C 371.5,485.167 371.5,470.833 371.5,456.5C 371.5,439.167 371.5,421.833 371.5,404.5C 371.5,377.167 371.5,349.833 371.5,322.5C 371.5,313.5 371.5,304.5 371.5,295.5C 372.568,294.566 373.901,294.232 375.5,294.5 Z"/></g>
<g><path style="opacity:1" fill="#181e25" d="M 371.5,295.5 C 371.5,304.5 371.5,313.5 371.5,322.5C 370.542,322.953 369.708,323.619 369,324.5C 368.667,324.167 368.333,323.833 368,323.5C 364.368,328.134 360.368,332.467 356,336.5C 355.667,336.167 355.333,335.833 355,335.5C 351.702,339.8 348.035,343.8 344,347.5C 343.667,347.167 343.333,346.833 343,346.5C 339.368,351.134 335.368,355.467 331,359.5C 330.667,359.167 330.333,358.833 330,358.5C 326.368,363.134 322.368,367.467 318,371.5C 317.667,371.167 317.333,370.833 317,370.5C 313.368,375.134 309.368,379.467 305,383.5C 304.667,383.167 304.333,382.833 304,382.5C 300.702,386.8 297.035,390.8 293,394.5C 292.667,394.167 292.333,393.833 292,393.5C 288.368,398.134 284.368,402.467 280,406.5C 279.667,406.167 279.333,405.833 279,405.5C 275.368,410.134 271.368,414.467 267,418.5C 266.667,418.167 266.333,417.833 266,417.5C 262.368,422.134 258.368,426.467 254,430.5C 253.667,430.167 253.333,429.833 253,429.5C 249.702,433.8 246.035,437.8 242,441.5C 241.667,441.167 241.333,440.833 241,440.5C 237.368,445.134 233.368,449.467 229,453.5C 228.667,453.167 228.333,452.833 228,452.5C 224.368,457.134 220.368,461.467 216,465.5C 215.667,465.167 215.333,464.833 215,464.5C 211.368,469.134 207.368,473.467 203,477.5C 202.667,477.167 202.333,476.833 202,476.5C 198.368,481.134 194.368,485.467 190,489.5C 189.667,489.167 189.333,488.833 189,488.5C 185.702,492.8 182.035,496.8 178,500.5C 177.667,500.167 177.333,499.833 177,499.5C 173.368,504.134 169.368,508.467 165,512.5C 164.667,512.167 164.333,511.833 164,511.5C 160.368,516.134 156.368,520.467 152,524.5C 151.667,524.167 151.333,523.833 151,523.5C 147.368,528.134 143.368,532.467 139,536.5C 138.667,536.167 138.333,535.833 138,535.5C 134.702,539.8 131.035,543.8 127,547.5C 126.667,547.167 126.333,546.833 126,546.5C 122.368,551.134 118.368,555.467 114,559.5C 113.667,559.167 113.333,558.833 113,558.5C 109.368,563.134 105.368,567.467 101,571.5C 100.667,571.167 100.333,570.833 100,570.5C 96.3679,575.134 92.3679,579.467 88,583.5C 87.6667,583.167 87.3333,582.833 87,582.5C 83.3679,587.134 79.3679,591.467 75,595.5C 74.6667,595.167 74.3333,594.833 74,594.5C 70.7019,598.8 67.0352,602.8 63,606.5C 62.6667,606.167 62.3333,605.833 62,605.5C 58.3679,610.134 54.3679,614.467 50,618.5C 49.6667,618.167 49.3333,617.833 49,617.5C 45.3679,622.134 41.3679,626.467 37,630.5C 36.6667,630.167 36.3333,629.833 36,629.5C 32.3679,634.134 28.3679,638.467 24,642.5C 23.6667,642.167 23.3333,641.833 23,641.5C 15.1805,649.013 7.34712,656.68 -0.5,664.5C -0.5,655.5 -0.5,646.5 -0.5,637.5C 0.794229,636.71 1.9609,635.71 3,634.5C 3.33333,635.167 3.66667,635.833 4,636.5C 7.25109,631.245 11.2511,626.578 16,622.5C 16.3333,623.167 16.6667,623.833 17,624.5C 19.9156,619.58 23.5823,615.247 28,611.5C 28.3333,612.167 28.6667,612.833 29,613.5C 32.2511,608.245 36.2511,603.578 41,599.5C 41.3333,600.167 41.6667,600.833 42,601.5C 45.2511,596.245 49.2511,591.578 54,587.5C 54.3333,588.167 54.6667,588.833 55,589.5C 58.2243,584.268 62.2243,579.601 67,575.5C 67.3333,576.167 67.6667,576.833 68,577.5C 70.9156,572.58 74.5823,568.247 79,564.5C 79.3333,565.167 79.6667,565.833 80,566.5C 83.2511,561.245 87.2511,556.578 92,552.5C 92.3333,553.167 92.6667,553.833 93,554.5C 96.2511,549.245 100.251,544.578 105,540.5C 105.333,541.167 105.667,541.833 106,542.5C 109.251,537.245 113.251,532.578 118,528.5C 118.333,529.167 118.667,529.833 119,530.5C 122.251,525.245 126.251,520.578 131,516.5C 131.333,517.167 131.667,517.833 132,518.5C 134.916,513.58 138.582,509.247 143,505.5C 143.333,506.167 143.667,506.833 144,507.5C 147.251,502.245 151.251,497.578 156,493.5C 156.333,494.167 156.667,494.833 157,495.5C 160.251,490.245 164.251,485.578 169,481.5C 169.333,482.167 169.667,482.833 170,483.5C 173.224,478.268 177.224,473.601 182,469.5C 182.333,470.167 182.667,470.833 183,471.5C 185.916,466.58 189.582,462.247 194,458.5C 194.333,459.167 194.667,459.833 195,460.5C 198.251,455.245 202.251,450.578 207,446.5C 207.333,447.167 207.667,447.833 208,448.5C 211.251,443.245 215.251,438.578 220,434.5C 220.333,435.167 220.667,435.833 221,436.5C 224.251,431.245 228.251,426.578 233,422.5C 233.333,423.167 233.667,423.833 234,424.5C 237.251,419.245 241.251,414.578 246,410.5C 246.333,411.167 246.667,411.833 247,412.5C 249.916,407.58 253.582,403.247 258,399.5C 258.333,400.167 258.667,400.833 259,401.5C 262.251,396.245 266.251,391.578 271,387.5C 271.333,388.167 271.667,388.833 272,389.5C 275.251,384.245 279.251,379.578 284,375.5C 284.333,376.167 284.667,376.833 285,377.5C 288.251,372.245 292.251,367.578 297,363.5C 297.333,364.167 297.667,364.833 298,365.5C 300.916,360.58 304.582,356.247 309,352.5C 309.333,353.167 309.667,353.833 310,354.5C 313.251,349.245 317.251,344.578 322,340.5C 322.333,341.167 322.667,341.833 323,342.5C 326.251,337.245 330.251,332.578 335,328.5C 335.333,329.167 335.667,329.833 336,330.5C 339.251,325.245 343.251,320.578 348,316.5C 348.333,317.167 348.667,317.833 349,318.5C 351.916,313.58 355.582,309.247 360,305.5C 360.333,306.167 360.667,306.833 361,307.5C 363.811,302.866 367.311,298.866 371.5,295.5 Z"/></g>
<g><path style="opacity:1" fill="#f2f7fb" d="M 541.5,295.5 C 554.766,297.498 568.099,299.831 581.5,302.5C 591.401,305.48 601.401,308.48 611.5,311.5C 618.672,315.01 626.005,318.343 633.5,321.5C 640.144,325.8 646.811,330.133 653.5,334.5C 659.104,338.765 664.437,343.432 669.5,348.5C 671.5,351.167 673.833,353.5 676.5,355.5C 678.482,358.81 680.815,361.81 683.5,364.5C 686.847,369.869 690.181,375.203 693.5,380.5C 695.852,385.91 698.185,391.244 700.5,396.5C 702.506,403.515 704.506,410.515 706.5,417.5C 706.911,422.338 707.578,427.005 708.5,431.5C 708.517,433.565 708.85,435.565 709.5,437.5C 709.5,445.167 709.5,452.833 709.5,460.5C 709.002,465.152 708.669,469.819 708.5,474.5C 708.384,477.86 708.051,481.193 707.5,484.5C 706.062,495.691 703.728,506.691 700.5,517.5C 699.465,521.439 698.131,525.272 696.5,529C 694.565,528.942 692.898,528.109 691.5,526.5C 683.264,517.722 673.931,510.389 663.5,504.5C 652.95,497.063 641.284,492.063 628.5,489.5C 624.425,487.882 620.092,486.882 615.5,486.5C 611.366,485.515 607.032,485.182 602.5,485.5C 602.5,484.5 602.5,483.5 602.5,482.5C 603.248,477.515 603.915,472.515 604.5,467.5C 606.163,457.452 605.496,447.452 602.5,437.5C 600.423,431.002 597.09,425.335 592.5,420.5C 587.122,414.477 580.456,410.477 572.5,408.5C 563.916,405.269 554.916,403.602 545.5,403.5C 539.907,403.193 534.407,403.527 529,404.5C 528.501,399.511 528.334,394.511 528.5,389.5C 528.5,378.167 528.5,366.833 528.5,355.5C 528.5,340.833 528.5,326.167 528.5,311.5C 528.5,305.833 528.5,300.167 528.5,294.5C 532.81,295.08 537.143,295.414 541.5,295.5 Z"/></g>
<g><path style="opacity:1" fill="#212635" d="M 528.5,311.5 C 528.5,326.167 528.5,340.833 528.5,355.5C 516.536,365.462 504.87,375.795 493.5,386.5C 493.5,372.167 493.5,357.833 493.5,343.5C 505.589,333.351 517.256,322.685 528.5,311.5 Z"/></g>
<g><path style="opacity:1" fill="#5e3dab" d="M 1079.5,315.5 C 1079.5,324.167 1079.5,332.833 1079.5,341.5C 955.141,456.195 830.807,570.862 706.5,685.5C 705.506,678.305 704.506,670.971 703.5,663.5C 706.563,658.928 710.23,654.761 714.5,651C 836.337,539.329 958.004,427.496 1079.5,315.5 Z"/></g>
<g><path style="opacity:1" fill="#1b2127" d="M 371.5,322.5 C 371.5,349.833 371.5,377.167 371.5,404.5C 247.2,518.132 123.2,632.132 -0.5,746.5C -0.5,719.167 -0.5,691.833 -0.5,664.5C 7.34712,656.68 15.1805,649.013 23,641.5C 23.3333,641.833 23.6667,642.167 24,642.5C 28.3679,638.467 32.3679,634.134 36,629.5C 36.3333,629.833 36.6667,630.167 37,630.5C 41.3679,626.467 45.3679,622.134 49,617.5C 49.3333,617.833 49.6667,618.167 50,618.5C 54.3679,614.467 58.3679,610.134 62,605.5C 62.3333,605.833 62.6667,606.167 63,606.5C 67.0352,602.8 70.7019,598.8 74,594.5C 74.3333,594.833 74.6667,595.167 75,595.5C 79.3679,591.467 83.3679,587.134 87,582.5C 87.3333,582.833 87.6667,583.167 88,583.5C 92.3679,579.467 96.3679,575.134 100,570.5C 100.333,570.833 100.667,571.167 101,571.5C 105.368,567.467 109.368,563.134 113,558.5C 113.333,558.833 113.667,559.167 114,559.5C 118.368,555.467 122.368,551.134 126,546.5C 126.333,546.833 126.667,547.167 127,547.5C 131.035,543.8 134.702,539.8 138,535.5C 138.333,535.833 138.667,536.167 139,536.5C 143.368,532.467 147.368,528.134 151,523.5C 151.333,523.833 151.667,524.167 152,524.5C 156.368,520.467 160.368,516.134 164,511.5C 164.333,511.833 164.667,512.167 165,512.5C 169.368,508.467 173.368,504.134 177,499.5C 177.333,499.833 177.667,500.167 178,500.5C 182.035,496.8 185.702,492.8 189,488.5C 189.333,488.833 189.667,489.167 190,489.5C 194.368,485.467 198.368,481.134 202,476.5C 202.333,476.833 202.667,477.167 203,477.5C 207.368,473.467 211.368,469.134 215,464.5C 215.333,464.833 215.667,465.167 216,465.5C 220.368,461.467 224.368,457.134 228,452.5C 228.333,452.833 228.667,453.167 229,453.5C 233.368,449.467 237.368,445.134 241,440.5C 241.333,440.833 241.667,441.167 242,441.5C 246.035,437.8 249.702,433.8 253,429.5C 253.333,429.833 253.667,430.167 254,430.5C 258.368,426.467 262.368,422.134 266,417.5C 266.333,417.833 266.667,418.167 267,418.5C 271.368,414.467 275.368,410.134 279,405.5C 279.333,405.833 279.667,406.167 280,406.5C 284.368,402.467 288.368,398.134 292,393.5C 292.333,393.833 292.667,394.167 293,394.5C 297.035,390.8 300.702,386.8 304,382.5C 304.333,382.833 304.667,383.167 305,383.5C 309.368,379.467 313.368,375.134 317,370.5C 317.333,370.833 317.667,371.167 318,371.5C 322.368,367.467 326.368,363.134 330,358.5C 330.333,358.833 330.667,359.167 331,359.5C 335.368,355.467 339.368,351.134 343,346.5C 343.333,346.833 343.667,347.167 344,347.5C 348.035,343.8 351.702,339.8 355,335.5C 355.333,335.833 355.667,336.167 356,336.5C 360.368,332.467 364.368,328.134 368,323.5C 368.333,323.833 368.667,324.167 369,324.5C 369.708,323.619 370.542,322.953 371.5,322.5 Z"/></g>
<g><path style="opacity:1" fill="#613eb1" d="M 1079.5,341.5 C 1079.5,351.5 1079.5,361.5 1079.5,371.5C 956.504,484.996 833.337,598.329 710,711.5C 709.51,712.793 709.343,714.127 709.5,715.5C 708.304,705.66 707.304,695.66 706.5,685.5C 830.807,570.862 955.141,456.195 1079.5,341.5 Z"/></g>
<g><path style="opacity:1" fill="#24283b" d="M 528.5,355.5 C 528.5,366.833 528.5,378.167 528.5,389.5C 516.536,399.462 504.87,409.795 493.5,420.5C 493.5,409.167 493.5,397.833 493.5,386.5C 504.87,375.795 516.536,365.462 528.5,355.5 Z"/></g>
<g><path style="opacity:1" fill="#653eb8" d="M 1079.5,371.5 C 1079.5,382.833 1079.5,394.167 1079.5,405.5C 956.467,519.202 833.133,632.535 709.5,745.5C 709.5,735.5 709.5,725.5 709.5,715.5C 709.343,714.127 709.51,712.793 710,711.5C 833.337,598.329 956.504,484.996 1079.5,371.5 Z"/></g>
<g><path style="opacity:1" fill="#282a42" d="M 528.5,389.5 C 528.334,394.511 528.501,399.511 529,404.5C 534.407,403.527 539.907,403.193 545.5,403.5C 528.493,419.84 511.16,435.84 493.5,451.5C 493.5,441.167 493.5,430.833 493.5,420.5C 504.87,409.795 516.536,399.462 528.5,389.5 Z"/></g>
<g><path style="opacity:1" fill="#2a2c47" d="M 545.5,403.5 C 554.916,403.602 563.916,405.269 572.5,408.5C 546.167,432.5 519.833,456.5 493.5,480.5C 493.5,470.833 493.5,461.167 493.5,451.5C 511.16,435.84 528.493,419.84 545.5,403.5 Z"/></g>
<g><path style="opacity:1" fill="#1d242e" d="M 371.5,404.5 C 371.5,421.833 371.5,439.167 371.5,456.5C 247.5,570.833 123.5,685.167 -0.5,799.5C -0.5,781.833 -0.5,764.167 -0.5,746.5C 123.2,632.132 247.2,518.132 371.5,404.5 Z"/></g>
<g><path style="opacity:1" fill="#683fbe" d="M 1079.5,405.5 C 1079.5,417.167 1079.5,428.833 1079.5,440.5C 958.67,551.829 837.67,662.996 716.5,774C 712.859,777.126 709.859,780.626 707.5,784.5C 708.593,771.524 709.26,758.524 709.5,745.5C 833.133,632.535 956.467,519.202 1079.5,405.5 Z"/></g>
<g><path style="opacity:1" fill="#2e2d4e" d="M 572.5,408.5 C 580.456,410.477 587.122,414.477 592.5,420.5C 559.826,451.173 526.826,481.507 493.5,511.5C 493.5,501.167 493.5,490.833 493.5,480.5C 519.833,456.5 546.167,432.5 572.5,408.5 Z"/></g>
<g><path style="opacity:1" fill="#312f55" d="M 592.5,420.5 C 597.09,425.335 600.423,431.002 602.5,437.5C 572.141,465.528 541.807,493.528 511.5,521.5C 505.544,522.391 499.71,523.724 494,525.5C 493.501,520.845 493.334,516.179 493.5,511.5C 526.826,481.507 559.826,451.173 592.5,420.5 Z"/></g>
<g><path style="opacity:1" fill="#36325b" d="M 602.5,437.5 C 605.496,447.452 606.163,457.452 604.5,467.5C 604.662,465.473 604.495,463.473 604,461.5C 583.533,479.632 563.367,498.132 543.5,517C 550.346,517.172 557.013,517.672 563.5,518.5C 546.034,517.827 528.7,518.827 511.5,521.5C 541.807,493.528 572.141,465.528 602.5,437.5 Z"/></g>
<g><path style="opacity:1" fill="#6b3fc4" d="M 1079.5,440.5 C 1079.5,454.167 1079.5,467.833 1079.5,481.5C 862.935,680.61 646.602,879.943 430.5,1079.5C 415.833,1079.5 401.167,1079.5 386.5,1079.5C 487.31,985.601 588.31,891.934 689.5,798.5C 695.167,798.5 700.833,798.5 706.5,798.5C 706.54,793.807 706.873,789.141 707.5,784.5C 709.859,780.626 712.859,777.126 716.5,774C 837.67,662.996 958.67,551.829 1079.5,440.5 Z"/></g>
<g><path style="opacity:1" fill="#212635" d="M 371.5,456.5 C 371.5,470.833 371.5,485.167 371.5,499.5C 247.8,613.868 123.8,727.868 -0.5,841.5C -0.5,827.5 -0.5,813.5 -0.5,799.5C 123.5,685.167 247.5,570.833 371.5,456.5 Z"/></g>
<g><path style="opacity:1" fill="#373260" d="M 604.5,467.5 C 603.915,472.515 603.248,477.515 602.5,482.5C 601.566,483.568 601.232,484.901 601.5,486.5C 590.5,497.167 579.5,507.833 568.5,518.5C 566.833,518.5 565.167,518.5 563.5,518.5C 557.013,517.672 550.346,517.172 543.5,517C 563.367,498.132 583.533,479.632 604,461.5C 604.495,463.473 604.662,465.473 604.5,467.5 Z"/></g>
<g><path style="opacity:0.999" fill="#6d40c8" d="M 1079.5,481.5 C 1079.5,612.167 1079.5,742.833 1079.5,873.5C 1067.89,962.601 1021.23,1025.77 939.5,1063C 918.075,1071.36 896.075,1076.86 873.5,1079.5C 725.833,1079.5 578.167,1079.5 430.5,1079.5C 646.602,879.943 862.935,680.61 1079.5,481.5 Z"/></g>
<g><path style="opacity:1" fill="#aeaec3" d="M 602.5,482.5 C 602.5,483.5 602.5,484.5 602.5,485.5C 607.032,485.182 611.366,485.515 615.5,486.5C 610.833,486.5 606.167,486.5 601.5,486.5C 601.232,484.901 601.566,483.568 602.5,482.5 Z"/></g>
<g><path style="opacity:1" fill="#3b3467" d="M 601.5,486.5 C 606.167,486.5 610.833,486.5 615.5,486.5C 620.092,486.882 624.425,487.882 628.5,489.5C 617.135,500.866 605.469,511.866 593.5,522.5C 585.181,521.085 576.848,519.752 568.5,518.5C 579.5,507.833 590.5,497.167 601.5,486.5 Z"/></g>
<g><path style="opacity:1" fill="#413672" d="M 628.5,489.5 C 641.284,492.063 652.95,497.063 663.5,504.5C 651.228,514.435 639.562,525.102 628.5,536.5C 617.08,530.947 605.413,526.28 593.5,522.5C 605.469,511.866 617.135,500.866 628.5,489.5 Z"/></g>
<g><path style="opacity:1" fill="#24283b" d="M 371.5,499.5 C 371.5,510.833 371.5,522.167 371.5,533.5C 248.113,647.557 124.447,761.224 0.5,874.5C 0.5,873.833 0.166667,873.5 -0.5,873.5C -0.5,862.833 -0.5,852.167 -0.5,841.5C 123.8,727.868 247.8,613.868 371.5,499.5 Z"/></g>
<g><path style="opacity:1" fill="#47387e" d="M 663.5,504.5 C 673.931,510.389 683.264,517.722 691.5,526.5C 679.531,537.134 667.865,548.134 656.5,559.5C 647.724,551.048 638.39,543.381 628.5,536.5C 639.562,525.102 651.228,514.435 663.5,504.5 Z"/></g>
<g><path style="opacity:0.999" fill="#272a41" d="M 371.5,533.5 C 371.5,544.167 371.5,554.833 371.5,565.5C 248.887,677.443 126.553,789.776 4.5,902.5C 2.32837,893.299 0.995038,883.965 0.5,874.5C 124.447,761.224 248.113,647.557 371.5,533.5 Z"/></g>
<g><path style="opacity:0.999" fill="#2a2c47" d="M 371.5,565.5 C 371.5,574.833 371.5,584.167 371.5,593.5C 251.174,703.827 131.174,814.494 11.5,925.5C 8.41101,918.164 6.07768,910.497 4.5,902.5C 126.553,789.776 248.887,677.443 371.5,565.5 Z"/></g>
<g><path style="opacity:0.999" fill="#2e2d4d" d="M 371.5,593.5 C 371.5,604.167 371.5,614.833 371.5,625.5C 254.174,732.827 137.174,840.493 20.5,948.5C 16.5377,941.292 13.5377,933.625 11.5,925.5C 131.174,814.494 251.174,703.827 371.5,593.5 Z"/></g>
<g><path style="opacity:1" fill="#453779" d="M 557.5,623.5 C 534.208,645.157 510.875,666.824 487.5,688.5C 487.334,679.827 487.5,671.16 488,662.5C 494.977,647.365 505.143,634.865 518.5,625C 531.353,616.983 544.353,616.483 557.5,623.5 Z"/></g>
<g><path style="opacity:1" fill="#483880" d="M 557.5,623.5 C 563.915,626.043 569.249,630.043 573.5,635.5C 544.833,661.833 516.167,688.167 487.5,714.5C 487.5,705.833 487.5,697.167 487.5,688.5C 510.875,666.824 534.208,645.157 557.5,623.5 Z"/></g>
<g><path style="opacity:0.999" fill="#302f52" d="M 371.5,625.5 C 371.5,629.833 371.5,634.167 371.5,638.5C 255.533,744.465 139.867,850.798 24.5,957.5C 22.8946,954.622 21.5612,951.622 20.5,948.5C 137.174,840.493 254.174,732.827 371.5,625.5 Z"/></g>
<g><path style="opacity:1" fill="#4b3986" d="M 573.5,635.5 C 578.157,639.16 582.157,643.493 585.5,648.5C 552.487,677.692 519.82,707.359 487.5,737.5C 487.5,729.833 487.5,722.167 487.5,714.5C 516.167,688.167 544.833,661.833 573.5,635.5 Z"/></g>
<g><path style="opacity:0.999" fill="#322f55" d="M 371.5,638.5 C 371.5,642.5 371.5,646.5 371.5,650.5C 257.5,755.5 143.5,860.5 29.5,965.5C 27.347,963.206 25.6803,960.54 24.5,957.5C 139.867,850.798 255.533,744.465 371.5,638.5 Z"/></g>
<g><path style="opacity:1" fill="#503b8e" d="M 585.5,648.5 C 587.803,650.978 589.969,653.645 592,656.5C 592.5,703.832 592.667,751.165 592.5,798.5C 591.532,796.393 591.198,794.059 591.5,791.5C 591.5,782.833 591.5,774.167 591.5,765.5C 591.5,757.167 591.5,748.833 591.5,740.5C 591.5,732.167 591.5,723.833 591.5,715.5C 591.5,706.5 591.5,697.5 591.5,688.5C 591.666,680.826 591.5,673.159 591,665.5C 556.563,697.29 522.063,728.957 487.5,760.5C 487.5,752.833 487.5,745.167 487.5,737.5C 519.82,707.359 552.487,677.692 585.5,648.5 Z"/></g>
<g><path style="opacity:0.998" fill="#34305a" d="M 371.5,650.5 C 371.5,658.833 371.5,667.167 371.5,675.5C 260.507,777.16 149.84,879.16 39.5,981.5C 35.1688,976.848 31.8355,971.514 29.5,965.5C 143.5,860.5 257.5,755.5 371.5,650.5 Z"/></g>
<g><path style="opacity:1" fill="#513a92" d="M 591.5,688.5 C 556.833,720.167 522.167,751.833 487.5,783.5C 487.5,775.833 487.5,768.167 487.5,760.5C 522.063,728.957 556.563,697.29 591,665.5C 591.5,673.159 591.666,680.826 591.5,688.5 Z"/></g>
<g><path style="opacity:0.998" fill="#373260" d="M 371.5,675.5 C 371.5,683.5 371.5,691.5 371.5,699.5C 264.467,798.535 157.133,897.202 49.5,995.5C 45.7859,991.117 42.4525,986.45 39.5,981.5C 149.84,879.16 260.507,777.16 371.5,675.5 Z"/></g>
<g><path style="opacity:0.999" fill="#553b98" d="M 591.5,688.5 C 591.5,697.5 591.5,706.5 591.5,715.5C 460.174,836.16 329.174,957.16 198.5,1078.5C 190.038,1077.37 181.705,1075.7 173.5,1073.5C 272.801,982.201 371.801,890.534 470.5,798.5C 476.167,798.5 481.833,798.5 487.5,798.5C 487.5,793.5 487.5,788.5 487.5,783.5C 522.167,751.833 556.833,720.167 591.5,688.5 Z"/></g>
<g><path style="opacity:0.999" fill="#3b3366" d="M 371.5,699.5 C 371.5,708.833 371.5,718.167 371.5,727.5C 268.833,821.833 166.167,916.167 63.5,1010.5C 58.1275,1006.13 53.4608,1001.13 49.5,995.5C 157.133,897.202 264.467,798.535 371.5,699.5 Z"/></g>
<g><path style="opacity:0.999" fill="#583c9f" d="M 591.5,715.5 C 591.5,723.833 591.5,732.167 591.5,740.5C 468.207,852.792 345.54,965.792 223.5,1079.5C 217.5,1079.5 211.5,1079.5 205.5,1079.5C 203.393,1078.53 201.059,1078.2 198.5,1078.5C 329.174,957.16 460.174,836.16 591.5,715.5 Z"/></g>
<g><path style="opacity:0.999" fill="#3d346b" d="M 371.5,727.5 C 371.5,731.167 371.5,734.833 371.5,738.5C 270.833,831.167 170.167,923.833 69.5,1016.5C 67.1667,1014.83 65.1667,1012.83 63.5,1010.5C 166.167,916.167 268.833,821.833 371.5,727.5 Z"/></g>
<g><path style="opacity:0.999" fill="#3f356e" d="M 371.5,738.5 C 371.5,742.5 371.5,746.5 371.5,750.5C 272.533,840.798 173.867,931.465 75.5,1022.5C 73.1667,1020.83 71.1667,1018.83 69.5,1016.5C 170.167,923.833 270.833,831.167 371.5,738.5 Z"/></g>
<g><path style="opacity:1" fill="#5b3da5" d="M 591.5,740.5 C 591.5,748.833 591.5,757.167 591.5,765.5C 477.222,869.478 363.556,974.144 250.5,1079.5C 241.5,1079.5 232.5,1079.5 223.5,1079.5C 345.54,965.792 468.207,852.792 591.5,740.5 Z"/></g>
<g><path style="opacity:0.998" fill="#413573" d="M 371.5,750.5 C 371.5,758.167 371.5,765.833 371.5,773.5C 277.174,859.827 183.174,946.494 89.5,1033.5C 84.2539,1030.59 79.5873,1026.92 75.5,1022.5C 173.867,931.465 272.533,840.798 371.5,750.5 Z"/></g>
<g><path style="opacity:1" fill="#5e3dab" d="M 591.5,765.5 C 591.5,774.167 591.5,782.833 591.5,791.5C 487.174,887.16 383.174,983.16 279.5,1079.5C 269.833,1079.5 260.167,1079.5 250.5,1079.5C 363.556,974.144 477.222,869.478 591.5,765.5 Z"/></g>
<g><path style="opacity:0.998" fill="#443679" d="M 371.5,773.5 C 371.5,781.167 371.5,788.833 371.5,796.5C 281.56,878.104 192.227,960.437 103.5,1043.5C 98.1205,1041.15 93.4538,1037.81 89.5,1033.5C 183.174,946.494 277.174,859.827 371.5,773.5 Z"/></g>
<g><path style="opacity:1" fill="#613eb1" d="M 591.5,791.5 C 591.198,794.059 591.532,796.393 592.5,798.5C 600.167,798.5 607.833,798.5 615.5,798.5C 514.167,892.167 412.833,985.833 311.5,1079.5C 300.833,1079.5 290.167,1079.5 279.5,1079.5C 383.174,983.16 487.174,887.16 591.5,791.5 Z"/></g>
<g><path style="opacity:0.998" fill="#483780" d="M 371.5,796.5 C 379.433,798.468 387.766,799.135 396.5,798.5C 304.5,883.5 212.5,968.5 120.5,1053.5C 114.332,1050.92 108.665,1047.59 103.5,1043.5C 192.227,960.437 281.56,878.104 371.5,796.5 Z"/></g>
<g><path style="opacity:0.998" fill="#4b3886" d="M 396.5,798.5 C 404.5,798.5 412.5,798.5 420.5,798.5C 325.833,886.167 231.167,973.833 136.5,1061.5C 130.854,1059.34 125.52,1056.68 120.5,1053.5C 212.5,968.5 304.5,883.5 396.5,798.5 Z"/></g>
<g><path style="opacity:0.998" fill="#4e398c" d="M 420.5,798.5 C 428.833,798.5 437.167,798.5 445.5,798.5C 348.773,888.897 251.44,978.563 153.5,1067.5C 147.538,1066.29 141.871,1064.29 136.5,1061.5C 231.167,973.833 325.833,886.167 420.5,798.5 Z"/></g>
<g><path style="opacity:0.998" fill="#513a92" d="M 445.5,798.5 C 453.833,798.5 462.167,798.5 470.5,798.5C 371.801,890.534 272.801,982.201 173.5,1073.5C 166.459,1072.41 159.792,1070.41 153.5,1067.5C 251.44,978.563 348.773,888.897 445.5,798.5 Z"/></g>
<g><path style="opacity:1" fill="#653eb8" d="M 615.5,798.5 C 627.833,798.5 640.167,798.5 652.5,798.5C 551.167,892.167 449.833,985.833 348.5,1079.5C 336.167,1079.5 323.833,1079.5 311.5,1079.5C 412.833,985.833 514.167,892.167 615.5,798.5 Z"/></g>
<g><path style="opacity:1" fill="#683fbe" d="M 652.5,798.5 C 664.833,798.5 677.167,798.5 689.5,798.5C 588.31,891.934 487.31,985.601 386.5,1079.5C 373.833,1079.5 361.167,1079.5 348.5,1079.5C 449.833,985.833 551.167,892.167 652.5,798.5 Z"/></g>
</svg>
